HIERARCHY
ROOT Hips
{
  OFFSET 0 89.5177 0.535
  CHANNELS 6 Xposition Yposition Zposition Zrotation Xrotation Yrotation
  JOINT Spine
  {
    OFFSET 12.0259 -0.162855 1.69034e-005
    CHANNELS 3 Zrotation Xrotation Yrotation
    JOINT Spine1
    {
      OFFSET 15.3169 -0.0121922 0
      CHANNELS 3 Zrotation Xrotation Yrotation
      JOINT Spine2
      {
        OFFSET 15.3176 -0.0121908 0
        CHANNELS 3 Zrotation Xrotation Yrotation
        JOINT Neck
        {
          OFFSET 19.9142 1.56338 0
          CHANNELS 3 Zrotation Xrotation Yrotation
          JOINT Head
          {
            OFFSET 6.92651 0 0
            CHANNELS 3 Zrotation Xrotation Yrotation
            End Site
            {
              OFFSET 20.7666 0 0
            }
          }
          JOINT LeftShoulder
          {
            OFFSET -6.20654 0.708824 7.28219
            CHANNELS 3 Zrotation Xrotation Yrotation
            JOINT LeftArm
            {
              OFFSET 14.108 0 -1.52588e-005
              CHANNELS 3 Zrotation Xrotation Yrotation
              JOINT LeftForeArm
              {
                OFFSET 28.5802 0 0
                CHANNELS 3 Zrotation Xrotation Yrotation
                JOINT LeftHand
                {
                  OFFSET 27.092 0 0
                  CHANNELS 3 Zrotation Xrotation Yrotation
                  End Site
                  {
                    OFFSET 9.55928 -0.186424 0.145352
                  }
                }
              }
            }
          }
          JOINT RightShoulder
          {
            OFFSET -6.20654 0.708866 -7.28218
            CHANNELS 3 Zrotation Xrotation Yrotation
            JOINT RightArm
            {
              OFFSET 14.108 0 1.52588e-005
              CHANNELS 3 Zrotation Xrotation Yrotation
              JOINT RightForeArm
              {
                OFFSET 28.5802 0 0
                CHANNELS 3 Zrotation Xrotation Yrotation
                JOINT RightHand
                {
                  OFFSET 27.092 0 0
                  CHANNELS 3 Zrotation Xrotation Yrotation
                  End Site
                  {
                    OFFSET 9.55929 -0.186417 -0.145354
                  }
                }
              }
            }
          }
        }
      }
    }
  }
  JOINT LeftUpLeg
  {
    OFFSET 0.005 -0.535 8.837
    CHANNELS 3 Zrotation Xrotation Yrotation
    JOINT LeftLeg
    {
      OFFSET 39.9035 0 0
      CHANNELS 3 Zrotation Xrotation Yrotation
      JOINT LeftFoot
      {
        OFFSET 39.6689 0 0
        CHANNELS 3 Zrotation Xrotation Yrotation
        JOINT LeftToe
        {
          OFFSET 10.1624 13.6296 0
          CHANNELS 3 Zrotation Xrotation Yrotation
          End Site
          {
            OFFSET 8.38147 0 0
          }
        }
      }
    }
  }
  JOINT RightUpLeg
  {
    OFFSET 0.005 -0.535 -8.837
    CHANNELS 3 Zrotation Xrotation Yrotation
    JOINT RightLeg
    {
      OFFSET 39.9035 0 0
      CHANNELS 3 Zrotation Xrotation Yrotation
      JOINT RightFoot
      {
        OFFSET 39.6689 0 0
        CHANNELS 3 Zrotation Xrotation Yrotation
        JOINT RightToe
        {
          OFFSET 10.1624 13.6296 0
          CHANNELS 3 Zrotation Xrotation Yrotation
          End Site
          {
            OFFSET 8.38147 0 0
          }
        }
      }
    }
  }
}
MOTION
Frames:	14
Frame Time:	0.0333333
135.086 89.5474 -207.14 152.34 -85.6358 63.3996 -0.166859 -1.4413 -0.658139 -0.350432 -2.88011 -1.32093 -0.350432 -2.88011 -1.32094 -8.30708e-012 -9.0191e-006 -5.27751e-005 12.9614 3.85301 0.840058 -179.456 -27.8361 -88.8341 -24.538 -59.6519 12.5418 -5.91134 0 4.77083e-015 -24.763 -34.1943 -24.0765 -179.21 20.681 87.7636 -32.2424 35.7298 0.544202 -6.17067 0 -7.95139e-016 -82.3513 63.0489 87.6654 1.78996 8.55233 -178.107 -7.16014 -3.18055e-015 -1.19271e-015 13.0816 4.91295 -7.81503 90 6.21202e-018 -7.95139e-016 1.80896 -10.6754 177.8 -5.70392 1.59028e-015 1.98785e-016 11.2869 -2.08055 3.30058 90 -5.28022e-017 1.59028e-015 
135.098 89.5458 -207.1 152.95 -85.7019 64.0347 -0.158276 -1.42647 -0.675663 -0.333519 -2.85051 -1.35572 -0.333519 -2.85051 -1.35573 -8.30748e-012 -9.0191e-006 -5.27751e-005 12.9182 3.87307 0.889867 -179.522 -27.8084 -88.9753 -24.3364 -59.7405 12.6815 -5.73652 0 -3.18055e-015 -24.706 -34.0237 -23.9786 -179.212 20.7583 87.778 -32.2787 35.7445 0.450485 -6.06247 0 -0 -82.4042 63.1016 87.7195 1.79068 8.65031 -178.124 -7.1973 -1.59028e-015 3.97569e-016 13.0969 4.93255 -7.84647 90 1.98785e-016 -0 1.80713 -10.6586 177.773 -5.71533 1.59028e-015 -1.98785e-016 11.3357 -2.11941 3.36221 90 3.12154e-016 -0 
135.105 89.55 -207.059 153.735 -85.6879 64.8213 -0.157784 -1.42621 -0.66735 -0.345475 -2.84993 -1.33924 -0.345475 -2.84993 -1.33925 -8.30669e-012 -9.0191e-006 -5.27751e-005 12.9271 3.93144 0.77942 -179.531 -27.8336 -88.995 -24.0848 -60.058 12.873 -5.54453 0 3.18055e-015 -24.5905 -33.8676 -23.8347 -179.227 20.8133 87.8267 -32.3887 35.6753 0.462395 -6.03336 1.27222e-014 1.59028e-015 -82.3717 63.0783 87.6833 1.75614 8.67038 -178.136 -7.15158 1.59028e-015 -1.59028e-015 13.0487 4.90624 -7.80399 90 9.93923e-016 -0 1.77125 -10.6001 177.778 -5.64652 -1.59028e-015 -0 11.2805 -2.11551 3.35587 90 -1.12593e-016 -0 
135.11 89.5502 -207.035 153.778 -85.688 64.8737 -0.157661 -1.42614 -0.670033 -0.346633 -2.84256 -1.3569 -0.346634 -2.84256 -1.35691 -8.30669e-012 -9.0191e-006 -5.27751e-005 13.0231 3.95208 0.734128 -179.566 -27.8394 -89.0699 -23.9833 -60.0724 12.9355 -5.47415 -1.90833e-014 -0 -24.4879 -33.8227 -23.731 -179.2 20.8478 87.7524 -32.4058 35.5696 0.537735 -6.08044 3.18055e-015 -0 -82.5243 63.0946 87.8581 1.76249 8.69316 -178.145 -7.10632 1.59028e-015 3.97569e-016 13.0358 4.91603 -7.81975 90 -1.24862e-015 -0 1.77978 -10.6339 177.775 -5.5979 3.18056e-015 -9.93923e-016 11.2819 -2.12954 3.37819 90 3.06719e-017 -7.95139e-016 
135.113 89.5548 -207.002 154.235 -85.6723 65.3332 -0.157613 -1.4261 -0.672715 -0.359136 -2.8392 -1.35012 -0.359137 -2.8392 -1.35013 -8.30629e-012 -9.0191e-006 -5.27751e-005 13.153 4.02247 0.622328 -179.543 -27.904 -89.0233 -24.0277 -60.0816 12.8741 -5.49579 0 -0 -24.4324 -33.7454 -23.6597 -179.21 20.821 87.7799 -32.3293 35.5762 0.540281 -6.14478 -3.18055e-015 7.95139e-016 -82.4242 63.0775 87.7487 1.72105 8.66305 -178.155 -7.09195 0 -7.95139e-016 12.9943 4.87939 -7.76063 90 1.18028e-016 -0 1.75509 -10.6587 177.776 -5.53554 0 -0 11.2455 -2.1588 3.42439 90 -1.21426e-016 7.95139e-016 
135.121 89.5599 -206.985 154.115 -85.7003 65.2111 -0.157552 -1.42608 -0.672669 -0.355846 -2.83663 -1.35021 -0.355846 -2.83663 -1.35022 -8.30788e-012 -9.0191e-006 -5.27751e-005 13.2216 4.02794 0.662119 -179.533 -27.7958 -88.9979 -23.7921 -59.9444 12.8699 -5.46965 -6.36111e-015 -0 -24.8464 -34.276 -24.1452 -179.213 20.792 87.7846 -32.2809 35.6331 0.540918 -6.15278 6.36111e-015 7.95139e-016 -82.3458 63.0682 87.6637 1.72548 8.67228 -178.145 -7.11118 1.59028e-015 3.97569e-016 12.9787 4.8823 -7.76504 90 8.01351e-016 -0 1.79222 -10.5965 177.786 -5.50176 3.18056e-015 -0 11.2156 -2.13179 3.38159 90 7.91062e-018 -0 
135.126 89.5614 -206.967 153.861 -85.7114 64.942 -0.157528 -1.42606 -0.67256 -0.343618 -2.83429 -1.35265 -0.343618 -2.83429 -1.35266 -8.30828e-012 -9.0191e-006 -5.27751e-005 13.2668 4.05974 0.598266 -179.531 -27.99 -89.0012 -24.0312 -59.7395 12.8422 -5.784 9.54166e-015 1.59028e-015 -24.3884 -34.0423 -23.703 -179.217 20.8503 87.8013 -32.2879 35.6582 0.487934 -6.13261 6.36111e-015 7.95139e-016 -82.3739 63.0227 87.694 1.71221 8.68941 -178.12 -7.14289 -1.59028e-015 -7.95139e-016 12.9978 4.90321 -7.79855 90 -1.09953e-015 7.95139e-016 1.77712 -10.5558 177.81 -5.55362 0 7.95139e-016 11.188 -2.08151 3.30179 90 1.98785e-016 7.95139e-016 
135.135 89.5633 -206.955 153.398 -85.7384 64.476 -0.157521 -1.42601 -0.67243 -0.332367 -2.83325 -1.36897 -0.332367 -2.83325 -1.36898 -8.30748e-012 -9.0191e-006 -5.27751e-005 13.3362 4.0368 0.572788 -179.561 -28.0092 -89.0651 -24.0131 -59.7702 12.8859 -5.78321 9.54166e-015 4.77083e-015 -24.3223 -33.996 -23.632 -179.207 20.8473 87.7731 -32.2237 35.6728 0.447139 -6.12487 -3.18055e-015 -1.59028e-015 -82.3004 63.0563 87.6076 1.72614 8.67501 -178.105 -7.16351 -3.18055e-015 -0 13.0005 4.91149 -7.81176 90 -7.20594e-016 3.18055e-015 1.79583 -10.5836 177.816 -5.58045 1.59028e-015 -0 11.1954 -2.09071 3.31634 90 5.74612e-017 7.95139e-016 
135.138 89.565 -206.946 153.144 -85.7212 64.2143 -0.162462 -1.42592 -0.67232 -0.342141 -2.83733 -1.36388 -0.342141 -2.83733 -1.36389 -8.30748e-012 -9.0191e-006 -5.27751e-005 13.3786 4.08054 0.544728 -179.557 -28.0708 -89.0583 -24.0586 -59.8959 12.8844 -5.69761 -9.54166e-015 4.77083e-015 -24.1839 -33.9646 -23.4995 -179.216 20.862 87.8009 -32.161 35.6971 0.365067 -6.16201 -6.36111e-015 -7.95139e-016 -82.2781 63.0383 87.5849 1.70695 8.6806 -178.091 -7.1619 1.59028e-015 -3.97569e-016 12.9919 4.93275 -7.84575 90 8.13775e-016 -7.95139e-016 1.75665 -10.5982 177.823 -5.62406 1.59028e-015 -0 11.1811 -2.09227 3.31865 90 1.94126e-016 -0 
135.138 89.5666 -206.942 152.95 -85.6981 64.0086 -0.173114 -1.42577 -0.672274 -0.363116 -2.84893 -1.34931 -0.363117 -2.84893 -1.34932 -8.30828e-012 -9.0191e-006 -5.27751e-005 13.4299 4.1057 0.481191 -179.534 -28.1311 -89.0121 -24.0372 -60.2047 12.9396 -5.60786 1.90833e-014 -0 -24.1591 -33.8324 -23.4415 -179.21 20.8855 87.7849 -32.2374 35.6687 0.398091 -6.12838 6.36111e-015 7.95139e-016 -82.3875 63.0729 87.7018 1.70662 8.64343 -178.08 -7.12115 4.77083e-015 7.95139e-016 12.9657 4.92744 -7.83714 90 4.5969e-016 -1.59028e-015 1.74639 -10.6223 177.835 -5.62536 0 -0 11.1622 -2.0921 3.3183 90 3.10601e-017 -7.95139e-016 
135.138 89.5685 -206.95 152.586 -85.7265 63.6443 -0.174835 -1.4195 -0.679233 -0.366656 -2.83634 -1.36325 -0.366656 -2.83634 -1.36326 -8.30748e-012 -9.0191e-006 -5.27751e-005 13.4495 4.16933 0.460399 -179.525 -28.1518 -88.9928 -24.2156 -60.1085 12.7681 -5.61767 0 -3.18055e-015 -24.1443 -33.885 -23.4422 -179.202 20.8808 87.7617 -32.1417 35.7399 0.337236 -6.15651 -3.18055e-015 -7.95139e-016 -82.3947 63.1158 87.7058 1.76559 8.6403 -178.083 -7.08685 -3.18055e-015 -3.97569e-016 12.9594 4.92542 -7.83393 90 2.98177e-016 7.95139e-016 1.79495 -10.6081 177.849 -5.62085 -3.18056e-015 -0 11.1627 -2.0535 3.25723 90 1.55301e-018 -0 
135.139 89.5701 -206.949 152.543 -85.7682 63.5986 -0.173102 -1.40526 -0.678618 -0.369924 -2.80785 -1.36201 -0.369924 -2.80785 -1.36202 -8.30669e-012 -9.0191e-006 -5.27751e-005 13.4851 4.15893 0.364569 -179.54 -28.0578 -89.0229 -24.0149 -59.6591 12.8144 -5.85323 3.18055e-015 3.18055e-015 -24.1494 -34.2079 -23.5353 -179.202 20.9094 87.7648 -32.1169 35.6855 0.342955 -6.12383 3.18055e-015 7.95139e-016 -82.3603 63.1007 87.6652 1.78152 8.63906 -178.075 -7.12873 -3.18055e-015 7.95139e-016 12.9696 4.91654 -7.81962 90 -2.31087e-015 1.59028e-015 1.83909 -10.6062 177.855 -5.6036 -1.59028e-015 -3.97569e-016 11.1806 -2.08241 3.30307 90 -2.90412e-016 -0 
135.139 89.5706 -206.941 152.738 -85.8047 63.7783 -0.1712 -1.40196 -0.665791 -0.358842 -2.80136 -1.3362 -0.358842 -2.80136 -1.33621 -8.30748e-012 -9.0191e-006 -5.27751e-005 13.4173 4.2629 0.263794 -179.513 -28.1329 -88.9673 -23.9823 -59.7103 12.834 -5.86509 0 -1.59028e-015 -24.045 -34.1831 -23.4379 -179.207 20.8935 87.7772 -32.1339 35.7067 0.386368 -6.11388 9.54166e-015 7.95139e-016 -82.228 63.0865 87.5159 1.78931 8.66212 -178.061 -7.16125 1.59028e-015 -7.95139e-016 12.987 4.90752 -7.80524 90 -3.54085e-016 -1.59028e-015 1.8432 -10.6226 177.853 -5.62388 0 -0 11.1502 -2.1105 3.34731 90 -5.74612e-017 -0 
135.14 89.5715 -206.938 152.756 -85.8296 63.7999 -0.172928 -1.39938 -0.663694 -0.362217 -2.79619 -1.33203 -0.362217 -2.79619 -1.33204 -8.30708e-012 -9.0191e-006 -5.27751e-005 13.4028 4.32639 0.212269 -179.514 -28.21 -88.9708 -24.019 -59.9687 12.845 -5.71225 -3.18055e-015 -1.59028e-015 -24.1675 -34.1714 -23.5416 -179.215 20.9227 87.803 -32.1487 35.7173 0.364377 -6.14891 3.18055e-015 -3.18055e-015 -82.3112 63.0915 87.6098 1.79806 8.69444 -178.058 -7.1846 1.59028e-015 3.97569e-016 12.989 4.93197 -7.84434 90 6.21202e-018 1.59028e-015 1.87214 -10.5806 177.857 -5.60201 0 5.96354e-016 11.1435 -2.07691 3.29421 90 7.76503e-018 -0 
